<?xml version="1.0" standalone="no"?>
<!DOCTYPE svg PUBLIC "-//W3C//DTD SVG 20010904//EN"
 "http://www.w3.org/TR/2001/REC-SVG-20010904/DTD/svg10.dtd">
<svg version="1.0"
    xmlns="http://www.w3.org/2000/svg" width="1500" height="700" viewBox="0 0 1541.000000 765.000000" preserveAspectRatio="xMidYMid meet">

    <g transform="translate(0.000000,765.000000) scale(0.100000,-0.100000)" fill="rgb(34, 59, 127)" stroke="none">
        <path d="M7510 6969 c-384 -23 -751 -86 -1120 -192 -161 -47 -214 -65 -192
-66 7 -1 102 10 210 24 1031 130 1977 149 2731 55 90 -11 166 -19 168 -17 2 3
-49 18 -114 35 -532 140 -1107 195 -1683 161z"/>
        <path d="M7845 6614 c-33 -2 -145 -8 -250 -14 -367 -20 -807 -66 -1310 -136
-224 -31 -268 -40 -315 -65 -68 -35 -78 -34 240 -14 1108 69 2356 83 2905 34
66 -6 190 -21 275 -34 85 -12 157 -21 159 -19 9 8 -100 66 -178 94 -178 66
-383 107 -671 135 -146 14 -720 27 -855 19z"/>
        <path d="M7150 6119 c-633 -19 -2201 -117 -2779 -174 -476 -47 -835 -100
-1211 -176 -371 -76 -548 -125 -835 -231 -104 -39 -235 -86 -290 -104 -93 -31
-97 -33 -56 -34 24 0 150 16 280 35 1535 224 2901 350 4506 416 415 17 1752
23 2230 10 1408 -38 2777 -146 4144 -327 434 -57 443 -57 216 0 -458 114 -864
181 -1735 286 -234 28 -542 67 -685 85 -1331 174 -2643 249 -3785 214z"/>
        <path d="M9165 5053 c-351 -45 -546 -181 -586 -408 -27 -155 22 -290 133 -371
107 -79 155 -91 569 -145 209 -27 407 -56 441 -64 219 -57 318 -201 243 -352
-58 -115 -238 -194 -485 -212 -258 -18 -475 39 -752 201 l-67 39 17 36 c17 35
16 37 -13 46 -3 1 -43 -65 -89 -148 -75 -134 -82 -151 -67 -162 13 -10 18 -9
26 4 35 56 36 56 85 23 121 -83 322 -163 504 -201 78 -17 136 -22 256 -22 540
0 862 223 810 560 -25 159 -118 265 -289 330 -51 19 -152 36 -436 74 -203 27
-402 56 -441 64 -140 31 -235 101 -249 184 -27 159 96 276 345 328 107 23 380
22 478 0 153 -35 375 -128 389 -163 2 -7 -3 -26 -11 -42 -14 -27 -14 -31 1
-36 9 -4 20 -3 24 1 23 24 160 287 155 299 -8 22 -22 17 -43 -15 l-18 -30
-115 50 c-254 112 -381 140 -625 137 -88 0 -173 -3 -190 -5z"/>
        <path d="M1040 5031 c0 -17 6 -21 35 -21 l35 0 0 -815 0 -815 -35 0 c-28 0
-35 -4 -35 -20 0 -19 7 -20 175 -20 168 0 175 1 175 20 0 16 -7 20 -35 20
l-35 0 0 360 0 360 327 -2 327 -3 223 -354 c123 -194 223 -355 223 -357 0 -2
-13 -4 -30 -4 -23 0 -30 -4 -30 -20 0 -19 7 -20 195 -20 188 0 195 1 195 20 0
16 -7 20 -38 20 l-38 0 -232 360 c-128 198 -232 363 -232 368 0 4 28 13 62 19
141 27 273 124 334 246 35 68 57 179 49 247 -25 217 -129 350 -320 408 -42 13
-150 16 -672 19 l-623 4 0 -20z m1266 -198 c198 -106 185 -408 -21 -511 -74
-37 -144 -42 -562 -42 l-403 0 0 290 0 291 473 -3 c465 -3 473 -3 513 -25z"/>
        <path d="M3940 5030 c0 -16 7 -20 35 -20 19 0 35 -3 35 -7 0 -5 -161 -371
-357 -815 l-357 -808 -38 0 c-31 0 -38 -4 -38 -20 0 -19 7 -20 180 -20 173 0
180 1 180 20 0 16 -7 20 -34 20 l-34 0 301 705 c166 387 303 702 305 700 2 -2
138 -318 302 -702 l298 -698 -34 -3 c-26 -2 -34 -8 -34 -23 0 -18 9 -19 190
-19 181 0 190 1 190 19 0 15 -8 20 -36 23 l-35 3 -365 810 c-200 446 -364 811
-364 813 0 1 16 2 35 2 28 0 35 4 35 20 0 19 -7 20 -180 20 -173 0 -180 -1
-180 -20z"/>
        <path d="M5280 5030 c0 -16 7 -20 34 -20 l34 0 86 -232 c47 -128 183 -494 300
-813 l215 -580 -35 -3 c-26 -2 -34 -8 -34 -23 0 -18 9 -19 180 -19 173 0 180
1 180 20 0 16 -7 20 -36 20 -20 0 -34 4 -32 9 2 5 115 315 252 690 138 374
253 681 256 681 6 0 480 -1356 480 -1372 0 -5 -16 -8 -35 -8 -28 0 -35 -4 -35
-20 0 -19 7 -20 175 -20 168 0 175 1 175 20 0 16 -7 20 -36 20 -30 0 -35 3
-29 18 7 18 561 1539 577 1585 8 22 16 27 44 27 27 0 34 4 34 20 0 19 -7 20
-170 20 -163 0 -170 -1 -170 -20 0 -15 7 -20 25 -20 14 0 25 -5 25 -12 0 -11
-449 -1340 -454 -1346 -4 -4 -496 1331 -496 1346 0 6 11 12 25 12 18 0 25 5
25 20 0 19 -7 20 -165 20 -158 0 -165 -1 -165 -20 0 -15 7 -20 25 -20 14 0 25
-3 25 -7 0 -14 -485 -1363 -490 -1363 -6 0 -483 1322 -488 1351 -3 15 3 19 22
19 19 0 26 5 26 20 0 19 -7 20 -175 20 -168 0 -175 -1 -175 -20z"/>
        <path d="M10690 5020 c0 -16 7 -20 35 -20 l35 0 0 -597 c0 -348 5 -627 10
-668 36 -249 235 -383 620 -415 318 -27 617 50 746 192 44 50 90 145 104 217
6 33 10 290 10 662 l0 609 35 0 c28 0 35 4 35 20 0 19 -7 20 -176 20 -162 0
-175 -1 -172 -17 2 -13 14 -19 41 -21 l38 -3 -3 -622 c-4 -675 -3 -663 -61
-739 -42 -55 -110 -92 -222 -120 -128 -32 -379 -32 -507 0 -139 34 -224 87
-263 162 -29 57 -35 171 -35 743 l0 577 40 0 c33 0 40 3 40 20 0 19 -7 20
-175 20 -168 0 -175 -1 -175 -20z"/>
        <path d="M12760 5020 c0 -16 6 -20 35 -20 l35 0 0 -815 0 -815 -35 0 c-28 0
-35 -4 -35 -20 0 -19 7 -20 175 -20 168 0 175 1 175 20 0 16 -7 20 -35 20
l-35 0 0 365 0 365 326 -2 326 -3 224 -355 c123 -195 224 -358 224 -362 0 -5
-13 -8 -30 -8 -23 0 -30 -4 -30 -20 0 -19 7 -20 195 -20 186 0 195 1 195 19 0
16 -8 20 -37 23 l-38 3 -235 365 -236 365 70 17 c240 61 376 224 379 453 3
206 -103 372 -278 437 -59 22 -66 23 -697 26 -637 3 -638 3 -638 -18z m1269
-195 c114 -63 166 -198 126 -332 -23 -78 -74 -136 -152 -175 l-68 -33 -447 -3
-448 -3 0 291 0 291 468 -3 467 -3 54 -30z"/>
        <path d="M4105 4025 c-72 -25 -105 -86 -105 -193 0 -94 39 -150 94 -136 36 9
122 104 151 166 63 135 -3 211 -140 163z"/>
        <path d="M5551 2908 c-52 -139 -181 -501 -181 -509 0 -6 15 -9 33 -7 30 3 33
7 57 76 l25 73 119 -3 119 -3 26 -70 c25 -65 29 -70 59 -73 21 -2 32 1 32 10
0 7 -41 129 -92 270 l-93 258 -48 0 c-40 0 -49 -3 -56 -22z m104 -178 c25 -68
45 -125 45 -127 0 -2 -43 -3 -95 -3 -52 0 -95 2 -95 4 0 4 66 189 82 229 6 15
12 26 14 24 3 -2 24 -59 49 -127z"/>
        <path d="M6110 2803 c-91 -14 -130 -50 -130 -120 0 -62 36 -97 116 -112 32 -7
71 -17 86 -23 50 -19 49 -77 -2 -98 -47 -20 -112 -7 -203 38 -5 2 -7 -13 -5
-34 3 -36 7 -40 43 -52 61 -21 154 -19 200 4 56 27 82 81 66 135 -14 46 -31
57 -136 84 -66 17 -82 25 -95 48 -14 27 -14 29 13 53 40 35 89 32 190 -11 14
-6 17 -2 17 29 0 32 -3 36 -37 45 -56 13 -95 18 -123 14z"/>
        <path d="M6551 2799 c-58 -11 -90 -33 -107 -74 -33 -79 12 -133 130 -160 108
-24 135 -60 79 -105 -24 -19 -37 -21 -86 -17 -32 3 -73 14 -93 26 -19 12 -37
21 -40 21 -2 0 -4 -16 -4 -36 0 -31 4 -37 37 -50 52 -22 160 -21 207 1 48 23
69 55 69 107 0 60 -38 91 -136 113 -44 10 -83 25 -92 35 -23 25 -13 63 20 78
44 20 90 14 178 -23 14 -6 17 -2 17 29 0 32 -3 36 -37 45 -66 16 -97 18 -142
10z"/>
        <path d="M7950 2803 c-119 -15 -110 -11 -110 -50 0 -29 3 -34 17 -28 43 16
117 26 149 20 40 -7 74 -36 74 -64 0 -16 -13 -20 -85 -29 -141 -18 -185 -54
-185 -147 0 -106 121 -157 228 -94 41 24 42 24 42 -2 0 -17 5 -20 33 -17 l32
3 3 150 c3 168 -7 205 -63 236 -31 17 -92 27 -135 22z m130 -253 c0 -52 -3
-61 -25 -76 -62 -40 -159 -35 -171 10 -17 69 20 104 122 115 38 5 70 9 72 10
1 0 2 -26 2 -59z"/>
        <path d="M8497 2796 c-21 -8 -47 -22 -58 -32 -18 -16 -19 -16 -19 10 0 25 -3
27 -32 24 l-33 -3 0 -200 0 -200 33 -3 32 -3 0 155 0 156 40 20 c46 23 108 26
136 6 17 -13 20 -31 24 -173 l5 -158 33 -3 32 -3 0 153 c-1 208 -19 249 -116
263 -22 3 -55 -1 -77 -9z"/>
        <path d="M9468 2801 c-87 -28 -130 -85 -136 -177 -2 -35 -1 -80 2 -99 9 -46
67 -110 112 -125 47 -16 139 -15 189 2 36 12 40 17 43 51 l3 38 -41 -21 c-113
-58 -224 -18 -245 88 l-7 32 153 0 152 0 -6 55 c-7 66 -32 113 -73 137 -37 21
-109 31 -146 19z m105 -63 c31 -16 46 -39 47 -70 l0 -28 -116 0 c-115 0 -115
0 -109 23 4 12 22 37 41 55 27 25 42 32 75 32 22 0 50 -5 62 -12z"/>
        <path d="M9964 2800 c-80 -11 -132 -71 -120 -136 10 -49 53 -79 141 -99 58
-13 79 -22 91 -41 15 -22 15 -26 0 -49 -9 -14 -28 -28 -42 -31 -37 -9 -108 3
-154 26 l-40 20 0 -35 c0 -32 4 -38 38 -52 43 -18 153 -21 195 -4 50 20 77 58
77 112 0 63 -32 91 -133 113 -44 10 -82 25 -92 36 -23 25 -13 63 20 78 44 20
90 14 178 -23 14 -6 17 -2 17 28 0 27 -5 37 -20 42 -41 13 -117 20 -156 15z"/>
        <path d="M6920 2638 c0 -174 5 -196 50 -230 43 -32 91 -33 153 -5 53 24 55 24
60 6 4 -14 14 -19 36 -19 l31 0 0 206 0 205 -32 -3 -33 -3 -5 -154 -5 -154
-35 -18 c-48 -26 -112 -25 -136 2 -17 18 -19 40 -22 175 l-3 154 -30 0 -29 0
0 -162z"/>
        <path d="M7460 2595 l0 -206 33 3 32 3 3 147 3 146 44 22 c32 15 59 21 90 18
45 -3 45 -3 45 28 0 25 -5 33 -23 38 -29 7 -94 -11 -129 -35 l-27 -19 -3 27
c-2 23 -8 29 -35 31 l-33 3 0 -206z"/>
        <path d="M8975 2786 c-37 -17 -80 -62 -94 -99 -6 -16 -11 -59 -11 -96 0 -132
64 -201 188 -201 34 0 78 7 97 14 31 13 35 19 35 50 l0 36 -39 -21 c-57 -29
-102 -34 -143 -15 -49 24 -69 64 -69 141 0 137 89 190 212 126 l39 -21 0 36
c0 31 -4 37 -35 50 -43 18 -140 18 -180 0z"/>
        <path d="M5251 1575 c-64 -58 -134 -212 -162 -355 -6 -36 -12 -128 -13 -205
-1 -127 1 -145 23 -193 45 -101 142 -159 303 -181 119 -17 233 11 341 83 66
44 81 61 74 80 -8 21 -99 10 -157 -19 -114 -57 -282 -75 -332 -35 -59 46 -83
155 -67 298 19 170 84 353 153 429 41 46 67 57 93 38 16 -12 18 -30 18 -150
l0 -136 37 -35 c43 -39 75 -43 109 -15 22 18 24 25 21 108 -3 135 -17 186 -58
222 -19 17 -59 37 -92 46 -31 9 -87 25 -124 36 -96 28 -121 25 -167 -16z"/>
        <path d="M10205 1593 c-50 -8 -53 -16 -38 -85 9 -44 14 -154 16 -361 l2 -298
25 -5 c14 -3 33 -8 43 -11 9 -2 42 1 73 7 54 11 56 13 50 38 -4 15 -12 65 -18
112 -13 95 0 317 28 494 13 82 14 100 2 107 -13 9 -128 10 -183 2z"/>
        <path d="M5896 1508 c-3 -18 -17 -57 -31 -86 -14 -30 -25 -60 -25 -67 0 -12
88 -45 118 -45 11 0 102 175 102 196 0 17 -54 34 -110 34 -46 0 -48 -1 -54
-32z"/>
        <path d="M7441 1491 c-19 -3 -37 -14 -40 -23 -3 -9 -3 -61 0 -115 7 -125 2
-139 -51 -146 -23 -3 -50 -13 -61 -23 -30 -27 -7 -44 63 -44 l60 0 -3 -232 -4
-232 25 -13 c14 -7 49 -12 80 -11 l55 3 0 230 c0 127 4 235 8 242 4 6 32 15
62 18 31 4 57 11 60 15 12 19 -33 53 -76 59 l-44 6 0 130 0 129 -25 7 c-30 8
-63 8 -109 0z"/>
        <path d="M8890 1482 c-26 -5 -178 -157 -168 -167 10 -10 76 -18 100 -11 14 3
39 30 62 66 21 33 44 59 50 57 6 -2 25 -29 41 -60 17 -31 35 -59 40 -61 6 -2
33 -1 62 1 l51 5 -35 46 c-19 25 -43 62 -54 84 -17 34 -23 38 -58 38 -22 0
-45 2 -53 3 -7 2 -24 2 -38 -1z"/>
        <path d="M6853 1240 c-41 -25 -81 -103 -91 -177 -19 -140 21 -189 192 -241
125 -38 147 -60 94 -92 -58 -35 -171 -17 -229 36 -25 23 -62 14 -77 -20 -29
-60 32 -82 258 -92 130 -6 137 -5 180 18 56 30 75 65 58 103 -11 26 -81 64
-201 111 -94 37 -123 85 -107 174 11 58 59 124 92 128 33 4 41 -18 41 -103 -1
-33 5 -72 13 -86 26 -51 108 -57 133 -10 16 28 13 126 -3 166 -20 47 -48 62
-160 85 -122 25 -153 25 -193 0z"/>
        <path d="M8194 1250 c-51 -20 -100 -119 -110 -220 -8 -81 23 -136 95 -172 30
-14 70 -29 90 -33 64 -12 131 -46 131 -66 0 -26 -50 -49 -105 -49 -46 0 -124
30 -146 56 -20 24 -64 17 -77 -11 -19 -41 -14 -55 21 -70 41 -17 190 -35 290
-35 110 0 187 40 187 99 0 41 -33 65 -155 116 -123 52 -152 73 -161 121 -13
73 48 204 95 204 32 0 41 -22 41 -100 0 -84 13 -112 57 -127 65 -22 103 15
103 99 0 64 -26 125 -60 143 -34 18 -203 55 -245 54 -16 0 -40 -4 -51 -9z"/>
        <path d="M9598 1246 c-15 -8 -38 -22 -50 -30 -25 -18 -53 -21 -43 -6 4 6 1 17
-5 25 -14 17 -123 21 -163 6 -23 -9 -24 -12 -15 -63 5 -29 11 -156 12 -283 l3
-229 32 -9 c18 -4 54 -7 79 -5 l46 3 2 145 c2 168 21 247 78 322 42 55 53 60
102 47 41 -12 56 -1 52 36 -5 37 -89 63 -130 41z"/>
        <path d="M6320 1234 c-45 -8 -70 -27 -101 -76 -82 -128 -108 -313 -59 -413 21
-42 35 -55 82 -78 85 -43 181 -55 271 -33 89 21 141 46 145 69 4 22 -43 23
-113 2 -60 -19 -185 -21 -215 -5 -26 14 -56 78 -42 92 6 6 38 5 88 -2 44 -7
96 -12 116 -12 101 2 168 93 168 229 0 98 -42 155 -145 197 -61 24 -149 38
-195 30z m165 -81 c40 -40 47 -131 15 -216 -29 -76 -58 -101 -111 -94 -23 3
-52 16 -66 29 -22 20 -24 29 -20 76 6 61 61 187 91 208 27 19 71 18 91 -3z"/>
        <path d="M8677 1223 c-18 -5 -19 -17 -15 -211 3 -185 6 -212 25 -254 32 -71
77 -90 223 -95 67 -2 136 -11 166 -20 53 -17 85 -14 119 11 19 14 19 14 1 49
-18 32 -19 52 -13 266 l5 231 -24 6 c-33 8 -142 0 -153 -12 -4 -5 -4 -49 1
-99 5 -49 8 -143 6 -208 l-3 -119 -33 -29 c-24 -22 -42 -29 -71 -29 -78 0 -96
53 -87 255 3 77 9 163 12 192 l6 51 -38 11 c-39 11 -94 13 -127 4z"/>
        <path d="M10194 761 c-48 -22 -60 -45 -39 -77 20 -31 86 -48 153 -40 115 14
158 55 108 105 -23 23 -36 26 -104 29 -59 2 -86 -2 -118 -17z"/>
    </g>
</svg>
